<svg id="visual" viewBox="0 0 960 540" width="960" height="540" xmlns="http://www.w3.org/2000/svg" xmlns:xlink="http://www.w3.org/1999/xlink" version="1.1"><rect x="0" y="0" width="960" height="540" fill="#9C9EFE"></rect><path d="M0 287L22.8 293.3C45.7 299.7 91.3 312.3 137 313.2C182.7 314 228.3 303 274 286C319.7 269 365.3 246 411.2 242.8C457 239.7 503 256.3 548.8 268.7C594.7 281 640.3 289 686 298.7C731.7 308.3 777.3 319.7 823 314.3C868.7 309 914.3 287 937.2 276L960 265L960 541L937.2 541C914.3 541 868.7 541 823 541C777.3 541 731.7 541 686 541C640.3 541 594.7 541 548.8 541C503 541 457 541 411.2 541C365.3 541 319.7 541 274 541C228.3 541 182.7 541 137 541C91.3 541 45.7 541 22.8 541L0 541Z" fill="#a66cff"></path><path d="M0 334L22.8 326.5C45.7 319 91.3 304 137 307.5C182.7 311 228.3 333 274 341.8C319.7 350.7 365.3 346.3 411.2 338.2C457 330 503 318 548.8 318.7C594.7 319.3 640.3 332.7 686 329.8C731.7 327 777.3 308 823 303.3C868.7 298.7 914.3 308.3 937.2 313.2L960 318L960 541L937.2 541C914.3 541 868.7 541 823 541C777.3 541 731.7 541 686 541C640.3 541 594.7 541 548.8 541C503 541 457 541 411.2 541C365.3 541 319.7 541 274 541C228.3 541 182.7 541 137 541C91.3 541 45.7 541 22.8 541L0 541Z" fill="#9d5ad9"></path><path d="M0 359L22.8 353.2C45.7 347.3 91.3 335.7 137 342C182.7 348.3 228.3 372.7 274 374.3C319.7 376 365.3 355 411.2 341.7C457 328.3 503 322.7 548.8 323.7C594.7 324.7 640.3 332.3 686 346.7C731.7 361 777.3 382 823 386C868.7 390 914.3 377 937.2 370.5L960 364L960 541L937.2 541C914.3 541 868.7 541 823 541C777.3 541 731.7 541 686 541C640.3 541 594.7 541 548.8 541C503 541 457 541 411.2 541C365.3 541 319.7 541 274 541C228.3 541 182.7 541 137 541C91.3 541 45.7 541 22.8 541L0 541Z" fill="#914ab5"></path><path d="M0 414L22.8 415.7C45.7 417.3 91.3 420.7 137 416C182.7 411.3 228.3 398.7 274 399.7C319.7 400.7 365.3 415.3 411.2 421.5C457 427.7 503 425.3 548.8 415.5C594.7 405.7 640.3 388.3 686 391.7C731.7 395 777.3 419 823 421.3C868.7 423.7 914.3 404.3 937.2 394.7L960 385L960 541L937.2 541C914.3 541 868.7 541 823 541C777.3 541 731.7 541 686 541C640.3 541 594.7 541 548.8 541C503 541 457 541 411.2 541C365.3 541 319.7 541 274 541C228.3 541 182.7 541 137 541C91.3 541 45.7 541 22.8 541L0 541Z" fill="#813c93"></path><path d="M0 462L22.8 455.5C45.7 449 91.3 436 137 428.8C182.7 421.7 228.3 420.3 274 418.8C319.7 417.3 365.3 415.7 411.2 422.2C457 428.7 503 443.3 548.8 452.2C594.7 461 640.3 464 686 456.3C731.7 448.7 777.3 430.3 823 429.5C868.7 428.7 914.3 445.3 937.2 453.7L960 462L960 541L937.2 541C914.3 541 868.7 541 823 541C777.3 541 731.7 541 686 541C640.3 541 594.7 541 548.8 541C503 541 457 541 411.2 541C365.3 541 319.7 541 274 541C228.3 541 182.7 541 137 541C91.3 541 45.7 541 22.8 541L0 541Z" fill="#6f2f74"></path><path d="M0 508L22.8 505.2C45.7 502.3 91.3 496.7 137 488.5C182.7 480.3 228.3 469.7 274 471.8C319.7 474 365.3 489 411.2 495.7C457 502.3 503 500.7 548.8 502C594.7 503.3 640.3 507.7 686 504.8C731.7 502 777.3 492 823 487.5C868.7 483 914.3 484 937.2 484.5L960 485L960 541L937.2 541C914.3 541 868.7 541 823 541C777.3 541 731.7 541 686 541C640.3 541 594.7 541 548.8 541C503 541 457 541 411.2 541C365.3 541 319.7 541 274 541C228.3 541 182.7 541 137 541C91.3 541 45.7 541 22.8 541L0 541Z" fill="#5b2458"></path></svg>